<svg version="1.1" id="Layer_1" xmlns="http://www.w3.org/2000/svg" xmlns:xlink="http://www.w3.org/1999/xlink" x="0px" y="0px"
	 width="100%" viewBox="0 0 500 500" enable-background="new 0 0 500 500" xml:space="preserve">
<path fill="#1C311A" opacity="1.000000" stroke="none" 
	d="
M1.000001,352.000000 
	C1.000000,235.041519 1.000000,118.083046 1.000000,1.062283 
	C167.565979,1.062283 334.131989,1.062283 501.000000,1.062283 
	C501.000000,121.023155 501.000000,241.046570 500.634399,361.592773 
	C488.358307,367.175232 476.389374,372.103577 464.568024,377.363556 
	C460.241058,379.288849 455.898712,381.538696 452.208771,384.456604 
	C445.836273,389.495789 439.997162,395.205780 433.883148,400.576141 
	C415.048706,417.119720 396.124847,433.562653 377.413025,450.243591 
	C374.693390,452.668030 372.709045,453.018616 369.559235,451.355591 
	C359.017365,445.789642 348.348938,440.462250 337.706207,435.088562 
	C316.665802,424.465118 295.751282,413.577454 274.501160,403.390564 
	C263.929779,398.322876 255.331055,391.207275 247.279266,382.907837 
	C232.545822,367.721191 217.464630,352.869843 202.383255,338.026154 
	C200.941788,336.607422 198.170212,335.100891 196.533844,335.544556 
	C182.104126,339.457062 167.777817,343.755615 153.447876,348.030365 
	C132.908157,354.157501 112.405586,360.410065 91.838127,366.441925 
	C90.105591,366.950012 87.901764,366.524719 86.089493,365.969574 
	C78.623070,363.682465 71.228455,361.161865 63.797791,358.756897 
	C53.226349,355.335358 42.687950,351.801178 32.045067,348.617218 
	C28.809622,347.649261 25.159342,346.912689 21.902754,347.408386 
	C14.865252,348.479584 7.959596,350.416962 1.000001,352.000000 
M210.249649,244.297241 
	C210.238510,241.464966 210.313431,238.629196 210.199326,235.801086 
	C209.912506,228.692062 205.502548,226.051712 199.038162,228.947144 
	C198.012238,229.406677 196.724808,229.530182 195.585144,229.445862 
	C190.132614,229.042435 184.689316,228.513962 179.239258,228.029633 
	C179.239258,235.992081 179.239258,242.936188 179.239258,250.133667 
	C181.269852,250.035568 183.009857,249.951508 184.905365,249.859940 
	C184.905365,245.204361 184.571747,241.001816 185.078033,236.903046 
	C185.266968,235.373550 187.416641,234.086243 188.672256,232.688507 
	C189.669174,234.123245 191.384476,235.490967 191.525787,237.005539 
	C191.920334,241.233704 191.663010,245.522705 191.663010,250.124908 
	C194.023392,250.008301 195.743149,249.923355 197.713974,249.826004 
	C197.713974,245.521667 197.764893,241.705978 197.696823,237.892441 
	C197.648102,235.163177 198.030258,232.286148 201.392288,232.897919 
	C202.695679,233.135071 204.138870,236.150330 204.361908,238.036774 
	C204.820526,241.915375 204.499771,245.886124 204.499771,249.885269 
	C206.735977,249.885269 208.355057,249.885269 210.249619,249.885269 
	C210.249619,248.187027 210.249619,246.700058 210.249649,244.297241 
M222.084610,229.078583 
	C219.819901,228.786377 217.555191,228.494186 214.972778,228.161011 
	C214.972778,235.766342 214.972778,242.706421 214.972778,249.812103 
	C216.778168,249.812103 218.511444,249.812103 220.608719,249.812103 
	C220.608719,245.388336 220.290131,241.214432 220.768097,237.133820 
	C220.955017,235.537979 222.930618,234.151627 224.091553,232.669861 
	C225.162918,234.197037 226.981720,235.642761 227.158707,237.267380 
	C227.603256,241.347672 227.305649,245.508820 227.305649,249.837067 
	C229.486237,249.837067 231.226959,249.837067 233.292267,249.837067 
	C233.292267,245.264252 233.001724,240.924057 233.455170,236.663040 
	C233.606995,235.236313 235.657181,234.011612 236.839615,232.694565 
	C237.895950,234.043610 239.725342,235.318573 239.863083,236.755676 
	C240.270157,241.002930 240.008591,245.314285 240.008591,249.845459 
	C242.170425,249.845459 243.889633,249.845459 246.013565,249.845459 
	C246.013565,245.679657 246.032379,241.722839 246.009842,237.766266 
	C245.954544,228.061417 241.115997,225.328033 232.653839,228.991516 
	C229.397675,228.879791 226.141525,228.768066 222.084610,229.078583 
M134.595398,249.081802 
	C143.883072,252.573456 151.199692,249.082153 151.775909,239.197083 
	C149.095291,240.818222 147.245163,242.034973 145.303741,243.082550 
	C143.514694,244.047882 141.491760,245.709061 139.821564,245.450546 
	C138.120361,245.187210 135.637985,243.117584 135.405533,241.555008 
	C134.804489,237.514587 134.840836,233.250320 135.497345,229.217850 
	C135.746445,227.687790 138.272186,225.707352 139.976059,225.467926 
	C141.653046,225.232285 144.653091,226.501343 145.233398,227.882767 
	C146.853119,231.738632 149.243301,230.768784 152.147858,230.236771 
	C151.466309,224.847656 148.640030,221.769058 143.776260,220.594345 
	C138.810455,219.394989 134.469482,220.608322 131.255142,224.684143 
	C126.247551,231.033813 127.679039,243.393326 134.595398,249.081802 
M263.196808,235.773087 
	C263.192566,237.767578 263.692505,239.951019 263.036591,241.701294 
	C262.429871,243.320282 260.585541,244.475494 259.286255,245.834946 
	C258.244812,244.435516 256.447388,243.108383 256.305298,241.622925 
	C255.898132,237.365646 256.161926,233.044205 256.161926,228.556839 
	C253.943939,228.556839 252.231430,228.556839 250.164139,228.556839 
	C250.164139,233.859253 249.951889,238.828705 250.231552,243.770309 
	C250.453674,247.695297 252.590286,250.421402 256.865173,250.368698 
	C260.844360,250.319656 264.818756,249.885315 268.722412,249.625427 
	C268.722412,242.607162 268.722412,235.566223 268.722412,228.173141 
	C266.705688,228.288071 265.138275,228.377396 263.196991,228.488022 
	C263.196991,230.902145 263.196991,232.877060 263.196808,235.773087 
M296.126526,246.390076 
	C298.233521,247.720306 300.242798,249.942230 302.468811,250.186096 
	C306.496887,250.627396 310.654266,249.888474 314.081116,249.682877 
	C314.081116,244.807953 314.186127,240.043671 314.050995,235.286209 
	C313.921570,230.729736 311.234070,228.231735 306.432709,227.864777 
	C300.948242,227.445587 297.580719,229.651337 296.636414,234.478958 
	C298.564331,234.767517 300.479431,235.054153 303.645813,235.528061 
	C298.892365,238.444885 294.259064,240.013367 296.126526,246.390076 
M318.309998,231.051407 
	C318.313812,235.044067 318.190582,239.042099 318.359283,243.027786 
	C318.510193,246.592545 319.703064,249.862228 323.835815,250.183853 
	C328.245758,250.527054 332.703094,250.261124 337.002319,250.261124 
	C337.002319,242.419449 337.002319,235.521164 337.002319,228.489166 
	C335.041229,228.489166 333.461700,228.489166 331.352051,228.489166 
	C331.352051,232.884933 331.281860,237.007660 331.376709,241.126572 
	C331.439880,243.872009 330.458435,246.142029 327.600342,245.617966 
	C326.265411,245.373199 324.573151,242.902817 324.402039,241.296402 
	C323.952911,237.080826 324.250427,232.785721 324.250427,227.037369 
	C321.553436,228.467926 319.941132,229.323151 318.309998,231.051407 
M273.223358,246.206177 
	C272.629089,251.458466 276.009033,250.145386 279.108582,249.792770 
	C279.108582,245.660553 279.186523,241.675293 279.082397,237.694809 
	C279.007446,234.828278 279.675446,232.584167 283.033264,232.690079 
	C286.463776,232.798294 286.120605,235.513977 286.136169,237.829498 
	C286.162750,241.784042 286.143524,245.738876 286.143524,249.865753 
	C288.363342,249.865753 290.124359,249.865753 292.134430,249.865753 
	C292.134430,244.657211 292.289917,239.675934 292.082825,234.709778 
	C291.930725,231.061783 290.275909,228.013794 286.195099,227.961548 
	C282.027008,227.908173 277.849884,228.562195 273.666077,228.913452 
	C273.547974,229.215134 273.329712,229.515854 273.326752,229.818680 
	C273.276367,234.967743 273.252655,240.117081 273.223358,246.206177 
M359.699646,229.193848 
	C354.049988,234.061554 353.002228,242.548553 357.464050,247.302292 
	C361.645416,251.757217 369.216766,251.404510 374.877197,245.310287 
	C372.060303,245.310287 370.266479,244.917892 368.734985,245.385208 
	C364.443451,246.694672 362.154968,245.487320 361.651581,240.841278 
	C365.788452,240.841278 369.884796,240.841278 373.913391,240.841278 
	C375.175842,230.440598 369.943420,225.996857 359.699646,229.193848 
M169.933670,249.597290 
	C170.958206,248.771484 172.134476,248.076675 172.980515,247.096756 
	C176.301239,243.250580 176.460526,235.918579 173.424057,231.755447 
	C170.822968,228.189209 165.865601,226.860107 161.356354,228.520020 
	C156.812439,230.192703 154.414368,234.743637 154.932999,240.709930 
	C155.581131,248.165985 160.379318,251.251633 169.933670,249.597290 
M352.630737,248.300400 
	C351.378937,246.912781 348.905945,245.322800 349.096313,244.174164 
	C349.760803,240.164062 345.475708,235.018768 351.561676,232.042068 
	C352.053650,231.801453 352.106934,229.450623 351.566467,228.569748 
	C350.505920,226.841171 348.883331,225.457443 346.716888,223.078323 
	C346.522034,223.078323 344.926117,223.078323 343.494141,223.078323 
	C342.902374,224.834122 342.839752,227.194214 341.722290,227.911942 
	C338.819824,229.776093 338.830475,230.915161 341.613892,232.735229 
	C342.331207,233.204285 342.705200,234.604919 342.759705,235.603668 
	C342.912933,238.411301 342.729279,241.235916 342.838348,244.047653 
	C343.071411,250.055603 346.922211,252.010880 352.630737,248.300400 
M364.851624,219.859940 
	C363.880005,221.479385 362.908386,223.098831 361.773651,224.990112 
	C367.269928,226.283569 368.903381,222.677200 371.463623,218.926498 
	C368.903595,219.103317 367.132843,219.225616 364.851624,219.859940 
z"/>
<path fill="#152514" opacity="1.000000" stroke="none" 
	d="
M1.000001,352.468658 
	C7.959596,350.416962 14.865252,348.479584 21.902754,347.408386 
	C25.159342,346.912689 28.809622,347.649261 32.045067,348.617218 
	C42.687950,351.801178 53.226349,355.335358 63.797791,358.756897 
	C71.228455,361.161865 78.623070,363.682465 86.089493,365.969574 
	C87.901764,366.524719 90.105591,366.950012 91.838127,366.441925 
	C112.405586,360.410065 132.908157,354.157501 153.447876,348.030365 
	C167.777817,343.755615 182.104126,339.457062 196.533844,335.544556 
	C198.170212,335.100891 200.941788,336.607422 202.383255,338.026154 
	C217.464630,352.869843 232.545822,367.721191 247.279266,382.907837 
	C255.331055,391.207275 263.929779,398.322876 274.501160,403.390564 
	C295.751282,413.577454 316.665802,424.465118 337.706207,435.088562 
	C348.348938,440.462250 359.017365,445.789642 369.559235,451.355591 
	C372.709045,453.018616 374.693390,452.668030 377.413025,450.243591 
	C396.124847,433.562653 415.048706,417.119720 433.883148,400.576141 
	C439.997162,395.205780 445.836273,389.495789 452.208771,384.456604 
	C455.898712,381.538696 460.241058,379.288849 464.568024,377.363556 
	C476.389374,372.103577 488.358307,367.175232 500.634399,362.057770 
	C501.000000,408.307587 501.000000,454.615173 501.000000,500.961365 
	C334.451691,500.961365 167.903351,500.961365 1.000000,500.961365 
	C1.000000,451.646332 1.000000,402.291840 1.000001,352.468658 
z"/>
<path fill="#EDEFED" opacity="1.000000" stroke="none" 
	d="
M210.249634,244.755157 
	C210.249619,246.700058 210.249619,248.187027 210.249619,249.885269 
	C208.355057,249.885269 206.735977,249.885269 204.499771,249.885269 
	C204.499771,245.886124 204.820526,241.915375 204.361908,238.036774 
	C204.138870,236.150330 202.695679,233.135071 201.392288,232.897919 
	C198.030258,232.286148 197.648102,235.163177 197.696823,237.892441 
	C197.764893,241.705978 197.713974,245.521667 197.713974,249.826004 
	C195.743149,249.923355 194.023392,250.008301 191.663010,250.124908 
	C191.663010,245.522705 191.920334,241.233704 191.525787,237.005539 
	C191.384476,235.490967 189.669174,234.123245 188.672272,232.688507 
	C187.416641,234.086243 185.266968,235.373550 185.078033,236.903046 
	C184.571747,241.001816 184.905365,245.204361 184.905365,249.859940 
	C183.009857,249.951508 181.269852,250.035568 179.239258,250.133667 
	C179.239258,242.936188 179.239258,235.992081 179.239258,228.029633 
	C184.689316,228.513962 190.132614,229.042435 195.585144,229.445862 
	C196.724808,229.530182 198.012238,229.406677 199.038162,228.947144 
	C205.502548,226.051712 209.912506,228.692062 210.199326,235.801086 
	C210.313431,238.629196 210.238510,241.464966 210.249634,244.755157 
z"/>
<path fill="#EAECEA" opacity="1.000000" stroke="none" 
	d="
M222.484985,228.867462 
	C226.141525,228.768066 229.397675,228.879791 232.653839,228.991516 
	C241.115997,225.328033 245.954544,228.061417 246.009842,237.766266 
	C246.032379,241.722839 246.013565,245.679657 246.013565,249.845459 
	C243.889633,249.845459 242.170425,249.845459 240.008591,249.845459 
	C240.008591,245.314285 240.270157,241.002930 239.863083,236.755676 
	C239.725342,235.318573 237.895950,234.043610 236.839630,232.694580 
	C235.657181,234.011612 233.606995,235.236313 233.455170,236.663040 
	C233.001724,240.924057 233.292267,245.264252 233.292267,249.837067 
	C231.226959,249.837067 229.486237,249.837067 227.305649,249.837067 
	C227.305649,245.508820 227.603256,241.347672 227.158707,237.267380 
	C226.981720,235.642761 225.162918,234.197037 224.091553,232.669861 
	C222.930618,234.151627 220.955017,235.537979 220.768097,237.133820 
	C220.290131,241.214432 220.608719,245.388336 220.608719,249.812103 
	C218.511444,249.812103 216.778168,249.812103 214.972778,249.812103 
	C214.972778,242.706421 214.972778,235.766342 214.972778,228.161011 
	C217.555191,228.494186 219.819901,228.786377 222.484985,228.867462 
z"/>
<path fill="#EAECEA" opacity="1.000000" stroke="none" 
	d="
M134.257751,248.919983 
	C127.679039,243.393326 126.247551,231.033813 131.255142,224.684143 
	C134.469482,220.608322 138.810455,219.394989 143.776260,220.594345 
	C148.640030,221.769058 151.466309,224.847656 152.147858,230.236771 
	C149.243301,230.768784 146.853119,231.738632 145.233398,227.882767 
	C144.653091,226.501343 141.653046,225.232285 139.976059,225.467926 
	C138.272186,225.707352 135.746445,227.687790 135.497345,229.217850 
	C134.840836,233.250320 134.804489,237.514587 135.405533,241.555008 
	C135.637985,243.117584 138.120361,245.187210 139.821564,245.450546 
	C141.491760,245.709061 143.514694,244.047882 145.303741,243.082550 
	C147.245163,242.034973 149.095291,240.818222 151.775909,239.197083 
	C151.199692,249.082153 143.883072,252.573456 134.257751,248.919983 
z"/>
<path fill="#EBEDEA" opacity="1.000000" stroke="none" 
	d="
M263.196899,235.312531 
	C263.196991,232.877060 263.196991,230.902145 263.196991,228.488022 
	C265.138275,228.377396 266.705688,228.288071 268.722412,228.173141 
	C268.722412,235.566223 268.722412,242.607162 268.722412,249.625427 
	C264.818756,249.885315 260.844360,250.319656 256.865173,250.368698 
	C252.590286,250.421402 250.453674,247.695297 250.231552,243.770309 
	C249.951889,238.828705 250.164139,233.859253 250.164139,228.556839 
	C252.231430,228.556839 253.943939,228.556839 256.161926,228.556839 
	C256.161926,233.044205 255.898132,237.365646 256.305298,241.622925 
	C256.447388,243.108383 258.244812,244.435516 259.286255,245.834946 
	C260.585541,244.475494 262.429871,243.320282 263.036591,241.701294 
	C263.692505,239.951019 263.192566,237.767578 263.196899,235.312531 
z"/>
<path fill="#EEF0EE" opacity="1.000000" stroke="none" 
	d="
M296.000458,246.048538 
	C294.259064,240.013367 298.892365,238.444885 303.645813,235.528061 
	C300.479431,235.054153 298.564331,234.767517 296.636414,234.478958 
	C297.580719,229.651337 300.948242,227.445587 306.432709,227.864777 
	C311.234070,228.231735 313.921570,230.729736 314.050995,235.286209 
	C314.186127,240.043671 314.081116,244.807953 314.081116,249.682877 
	C310.654266,249.888474 306.496887,250.627396 302.468811,250.186096 
	C300.242798,249.942230 298.233521,247.720306 296.000458,246.048538 
M307.506165,244.823593 
	C307.746918,243.365860 307.987701,241.908127 308.474182,238.962799 
	C305.445953,240.421112 303.565277,241.077682 302.043518,242.214630 
	C301.598816,242.546860 301.961121,245.079910 302.322784,245.173233 
	C303.746704,245.540649 305.317688,245.338120 307.506165,244.823593 
M306.733246,232.752228 
	C303.448242,231.661285 301.982239,233.110062 301.507538,236.867157 
	C303.811279,235.571960 308.106415,239.677734 306.733246,232.752228 
z"/>
<path fill="#EAECEA" opacity="1.000000" stroke="none" 
	d="
M318.319397,230.614899 
	C319.941132,229.323151 321.553436,228.467926 324.250427,227.037369 
	C324.250427,232.785721 323.952911,237.080826 324.402039,241.296402 
	C324.573151,242.902817 326.265411,245.373199 327.600342,245.617966 
	C330.458435,246.142029 331.439880,243.872009 331.376709,241.126572 
	C331.281860,237.007660 331.352051,232.884933 331.352051,228.489166 
	C333.461700,228.489166 335.041229,228.489166 337.002319,228.489166 
	C337.002319,235.521164 337.002319,242.419449 337.002319,250.261124 
	C332.703094,250.261124 328.245758,250.527054 323.835815,250.183853 
	C319.703064,249.862228 318.510193,246.592545 318.359283,243.027786 
	C318.190582,239.042099 318.313812,235.044067 318.319397,230.614899 
z"/>
<path fill="#EAECEA" opacity="1.000000" stroke="none" 
	d="
M273.223206,245.736267 
	C273.252655,240.117081 273.276367,234.967743 273.326752,229.818680 
	C273.329712,229.515854 273.547974,229.215134 273.671387,228.910004 
	C277.849884,228.562195 282.027008,227.908173 286.195099,227.961548 
	C290.275909,228.013794 291.930725,231.061783 292.082825,234.709778 
	C292.289917,239.675934 292.134430,244.657211 292.134430,249.865753 
	C290.124359,249.865753 288.363342,249.865753 286.143524,249.865753 
	C286.143524,245.738876 286.162750,241.784042 286.136169,237.829498 
	C286.120605,235.513977 286.463776,232.798294 283.033264,232.690079 
	C279.675446,232.584167 279.007446,234.828278 279.082397,237.694809 
	C279.186523,241.675293 279.108582,245.660553 279.108582,249.792770 
	C276.009033,250.145386 272.629089,251.458466 273.223206,245.736267 
z"/>
<path fill="#EFF0EE" opacity="1.000000" stroke="none" 
	d="
M360.017487,229.023346 
	C369.943420,225.996857 375.175842,230.440598 373.913391,240.841278 
	C369.884796,240.841278 365.788452,240.841278 361.651581,240.841278 
	C362.154968,245.487320 364.443451,246.694672 368.734985,245.385208 
	C370.266479,244.917892 372.060303,245.310287 374.877197,245.310287 
	C369.216766,251.404510 361.645416,251.757217 357.464050,247.302292 
	C353.002228,242.548553 354.049988,234.061554 360.017487,229.023346 
M368.706421,235.853149 
	C367.238892,234.731262 365.856842,232.921921 364.274292,232.725128 
	C363.189026,232.590179 361.824890,234.697784 360.585449,235.802933 
	C360.850922,236.280365 361.116394,236.757812 361.381897,237.235260 
	C363.734375,237.020569 366.086853,236.805862 368.706421,235.853149 
z"/>
<path fill="#EEF0EE" opacity="1.000000" stroke="none" 
	d="
M169.589050,249.755356 
	C160.379318,251.251633 155.581131,248.165985 154.932999,240.709930 
	C154.414368,234.743637 156.812439,230.192703 161.356354,228.520020 
	C165.865601,226.860107 170.822968,228.189209 173.424057,231.755447 
	C176.460526,235.918579 176.301239,243.250580 172.980515,247.096756 
	C172.134476,248.076675 170.958206,248.771484 169.589050,249.755356 
M161.944855,244.213745 
	C163.850143,244.512299 167.226105,245.447906 167.418243,245.004349 
	C168.532715,242.431564 169.406815,239.515442 169.305695,236.754150 
	C169.253510,235.328918 167.167831,233.111160 165.723938,232.862961 
	C164.440262,232.642319 161.828293,234.398132 161.483032,235.720383 
	C160.851715,238.138092 161.461075,240.879791 161.944855,244.213745 
z"/>
<path fill="#EEF0EE" opacity="1.000000" stroke="none" 
	d="
M352.604034,248.680420 
	C346.922211,252.010880 343.071411,250.055603 342.838348,244.047653 
	C342.729279,241.235916 342.912933,238.411301 342.759705,235.603668 
	C342.705200,234.604919 342.331207,233.204285 341.613892,232.735229 
	C338.830475,230.915161 338.819824,229.776093 341.722290,227.911942 
	C342.839752,227.194214 342.902374,224.834122 343.494141,223.078323 
	C344.926117,223.078323 346.522034,223.078323 346.716888,223.078323 
	C348.883331,225.457443 350.505920,226.841171 351.566467,228.569748 
	C352.106934,229.450623 352.053650,231.801453 351.561676,232.042068 
	C345.475708,235.018768 349.760803,240.164062 349.096313,244.174164 
	C348.905945,245.322800 351.378937,246.912781 352.604034,248.680420 
z"/>
<path fill="#DEE1DE" opacity="1.000000" stroke="none" 
	d="
M365.106873,219.603928 
	C367.132843,219.225616 368.903595,219.103317 371.463623,218.926498 
	C368.903381,222.677200 367.269928,226.283569 361.773651,224.990112 
	C362.908386,223.098831 363.880005,221.479385 365.106873,219.603928 
z"/>
<path fill="#334631" opacity="1.000000" stroke="none" 
	d="
M307.170135,245.085358 
	C305.317688,245.338120 303.746704,245.540649 302.322784,245.173233 
	C301.961121,245.079910 301.598816,242.546860 302.043518,242.214630 
	C303.565277,241.077682 305.445953,240.421112 308.474182,238.962799 
	C307.987701,241.908127 307.746918,243.365860 307.170135,245.085358 
z"/>
<path fill="#1C311A" opacity="1.000000" stroke="none" 
	d="
M307.191589,233.161804 
	C308.106415,239.677734 303.811279,235.571960 301.507538,236.867157 
	C301.982239,233.110062 303.448242,231.661285 307.191589,233.161804 
z"/>
<path fill="#475845" opacity="1.000000" stroke="none" 
	d="
M368.572876,236.222153 
	C366.086853,236.805862 363.734375,237.020569 361.381897,237.235260 
	C361.116394,236.757812 360.850922,236.280365 360.585449,235.802933 
	C361.824890,234.697784 363.189026,232.590179 364.274292,232.725128 
	C365.856842,232.921921 367.238892,234.731262 368.572876,236.222153 
z"/>
<path fill="#2D402B" opacity="1.000000" stroke="none" 
	d="
M161.748932,243.850052 
	C161.461075,240.879791 160.851715,238.138092 161.483032,235.720383 
	C161.828293,234.398132 164.440262,232.642319 165.723938,232.862961 
	C167.167831,233.111160 169.253510,235.328918 169.305695,236.754150 
	C169.406815,239.515442 168.532715,242.431564 167.418243,245.004349 
	C167.226105,245.447906 163.850143,244.512299 161.748932,243.850052 
z"/>
</svg>