<svg version="1.1" id="Layer_1" xmlns="http://www.w3.org/2000/svg" xmlns:xlink="http://www.w3.org/1999/xlink" x="0px" y="0px"
	 width="100%" viewBox="0 0 500 500" enable-background="new 0 0 500 500" xml:space="preserve">
<path fill="#1F1F1F" opacity="1.000000" stroke="none" 
	d="
M501.000000,3.000000 
	C501.000000,125.356659 501.000000,247.713318 500.570190,370.629456 
	C494.897491,369.807404 491.081726,371.873413 488.159943,376.130554 
	C486.751068,378.183319 484.970154,380.059296 483.948853,382.286407 
	C478.406647,394.372070 472.882324,406.471375 467.672028,418.702393 
	C461.820190,432.439392 459.681091,447.716492 450.875854,460.217712 
	C444.858002,468.761536 439.102478,477.655304 431.976105,485.210205 
	C423.557465,494.135101 413.780487,491.543365 408.723297,481.032715 
	C400.510010,463.962463 392.415588,446.750092 382.817627,430.453674 
	C372.151001,412.342773 359.375946,395.588562 341.447998,383.709778 
	C322.305542,371.026306 302.409424,374.117920 287.518372,391.593262 
	C277.212646,403.687531 270.199158,417.613525 264.231750,432.131805 
	C258.663483,445.678986 253.825104,459.541687 247.821213,472.885681 
	C245.765167,477.455322 241.901794,482.324493 237.574356,484.559723 
	C221.917145,492.647034 204.944366,494.420563 189.078674,486.380310 
	C164.034805,473.688751 146.923904,453.363464 137.400375,426.717468 
	C133.654129,416.235779 129.682678,405.757324 124.779015,395.786255 
	C118.711906,383.449432 110.317268,380.183319 97.999840,386.191711 
	C84.744507,392.657593 71.585800,399.791321 59.652355,408.392151 
	C39.574268,422.863159 20.497816,438.723907 1.000002,454.000000 
	C1.000000,303.976685 1.000000,153.953354 1.463135,3.435760 
	C167.285660,2.937428 332.645050,2.933237 498.004456,2.932218 
	C499.002960,2.932211 500.001495,2.976432 501.000000,3.000000 
M135.657791,271.253540 
	C135.658035,269.757721 135.575943,268.256470 135.674957,266.767212 
	C135.910049,263.231018 136.093185,259.491272 140.480423,258.500397 
	C144.738953,257.538605 146.906097,260.122528 148.018478,263.733643 
	C150.027695,263.733643 151.809097,263.733643 153.623077,263.733643 
	C152.703293,257.419281 149.668793,254.191910 143.971603,253.268143 
	C138.439453,252.371140 132.826263,254.978470 130.726074,259.950317 
	C128.156403,266.033569 128.214615,272.339386 130.987991,278.345581 
	C133.196152,283.127777 138.530411,285.176117 144.634842,284.134857 
	C150.059891,283.209534 152.686829,280.338715 153.590256,273.414795 
	C151.246399,274.144684 148.329575,274.167999 147.534821,275.478363 
	C145.684738,278.528809 143.134277,280.428467 140.309830,278.931854 
	C138.181122,277.803925 137.211807,274.487915 135.657791,271.253540 
M308.302795,274.509918 
	C310.242432,274.509918 312.182068,274.509918 314.029327,274.509918 
	C314.995239,267.367554 312.825317,263.084991 307.850128,261.503754 
	C302.831940,259.908844 297.490662,262.128937 295.255859,266.738525 
	C292.544373,272.331421 293.958191,279.301300 298.452545,282.497467 
	C302.887085,285.651123 309.478699,284.771149 314.898804,279.153900 
	C312.087585,278.988861 310.287231,278.397217 308.860077,278.888916 
	C304.267517,280.471191 302.041626,279.528870 300.899902,274.509827 
	C303.124725,274.509827 305.247711,274.509827 308.302795,274.509918 
M350.275238,265.464752 
	C345.788879,260.178711 339.274384,259.527008 334.720001,263.908630 
	C330.363190,268.100159 330.382172,277.492920 334.755646,281.562256 
	C339.224792,285.720612 346.778473,285.139984 352.182281,278.907135 
	C349.342743,278.907135 347.569611,278.490234 346.107330,278.987488 
	C342.165375,280.327972 339.485260,279.629425 337.792267,274.568420 
	C342.802826,274.568420 347.288086,274.568420 352.535461,274.568420 
	C351.799103,271.163239 351.251801,268.632446 350.275238,265.464752 
M250.790268,270.969421 
	C246.909607,272.307892 245.103607,275.053345 245.922623,279.057617 
	C246.661987,282.672394 249.395706,284.280823 252.903885,284.242340 
	C257.040161,284.196991 261.172943,283.832550 264.928497,283.627197 
	C264.928497,278.487091 265.122650,273.387726 264.871429,268.310425 
	C264.641113,263.656158 261.190735,261.064545 255.847168,261.011200 
	C250.525620,260.958069 247.564835,263.182709 246.683594,268.868713 
	C249.129059,267.948853 251.237274,267.416626 253.081818,266.404083 
	C256.257019,264.661102 257.742126,265.452362 258.389648,269.718658 
	C256.116760,270.055695 253.842545,270.392914 250.790268,270.969421 
M201.109344,271.200745 
	C200.148972,270.938538 199.130157,270.801208 198.241608,270.385498 
	C196.819229,269.720062 195.483200,268.869995 194.110703,268.097961 
	C194.554199,267.313019 195.102448,265.815948 195.423492,265.863190 
	C197.033813,266.100067 198.566132,266.813538 200.161209,267.221283 
	C202.055389,267.705475 203.985580,268.048767 206.273926,268.532074 
	C204.529007,261.752319 197.510147,258.859863 191.915390,262.249481 
	C190.103683,263.347137 188.366669,266.015564 188.266495,268.047852 
	C188.181305,269.776276 190.163589,272.093414 191.843735,273.289734 
	C193.643921,274.571472 196.231674,274.689850 198.328812,275.640076 
	C199.167923,276.020264 199.614746,277.266205 200.240158,278.118073 
	C199.365845,278.748810 198.474625,279.914520 197.621109,279.887573 
	C196.268219,279.844757 194.934982,279.018494 193.603516,278.497864 
	C191.740189,277.769287 189.886108,277.017059 187.319931,275.992096 
	C189.036026,282.947174 192.721222,285.452728 199.181686,283.968872 
	C201.788849,283.370026 204.871338,281.090210 206.006714,278.739471 
	C207.589996,275.461395 205.153076,272.833466 201.109344,271.200745 
M181.404221,278.048492 
	C177.458954,279.596405 173.485397,281.270294 170.343536,274.542969 
	C175.575516,274.274445 180.126907,274.040863 184.645844,273.808960 
	C185.439316,265.473907 181.610260,260.678070 174.652313,261.042755 
	C169.821136,261.295990 166.289474,264.208588 165.004898,268.999054 
	C163.617615,274.172424 165.321014,279.867767 169.053101,282.534241 
	C172.385681,284.915253 179.021515,284.875977 182.324829,282.544373 
	C184.611221,280.930542 184.676971,279.514404 181.404221,278.048492 
M280.170685,261.449341 
	C277.423981,262.583008 277.769897,263.986359 279.584717,265.850769 
	C280.529572,266.821442 281.569214,268.200012 281.631287,269.441101 
	C281.868927,274.189728 281.727386,278.957336 281.727386,284.026672 
	C284.029388,283.925476 285.770447,283.848938 287.823853,283.758667 
	C287.823853,277.769501 287.823853,272.157288 287.823853,267.196686 
	C289.636597,265.887115 290.924683,264.956573 292.212738,264.026062 
	C291.155670,263.129730 290.034912,262.296021 289.067535,261.311584 
	C288.557678,260.792786 287.852936,259.795349 288.042023,259.389435 
	C288.543915,258.312073 289.460266,257.418579 290.255981,256.489807 
	C291.151154,255.444901 292.094727,254.441422 293.017273,253.419937 
	C291.678467,252.847839 290.348907,251.810013 288.999237,251.783096 
	C282.675293,251.656906 282.251556,256.847656 280.170685,261.449341 
M211.385178,270.629761 
	C211.407898,273.281616 211.255295,275.949249 211.492462,278.581787 
	C211.897232,283.074799 215.153931,285.310608 219.551468,284.197296 
	C220.343063,283.996857 221.502289,283.205505 221.555984,282.603485 
	C221.640457,281.656586 221.217926,280.282074 220.508789,279.710388 
	C216.619003,276.574554 216.500946,268.736176 220.153717,265.708984 
	C220.898392,265.091858 220.963409,262.737152 220.406662,261.672302 
	C219.463974,259.869263 217.776031,258.455841 215.766739,256.150482 
	C215.279739,256.150482 213.545364,256.150482 212.438019,256.150482 
	C209.707275,260.655334 207.497894,264.825439 211.373703,269.212921 
	C211.456085,269.306183 211.384613,269.535400 211.385178,270.629761 
M319.028625,277.134277 
	C319.515747,283.022125 322.202148,285.398224 327.132111,284.148743 
	C327.909546,283.951691 329.045013,283.124023 329.083496,282.527863 
	C329.142822,281.608063 328.662598,280.291412 327.949799,279.744019 
	C324.039124,276.741028 323.966949,268.561188 327.698242,265.660278 
	C328.411987,265.105408 328.513123,262.788208 327.966278,261.797852 
	C326.958740,259.973145 325.260834,258.529633 323.183960,256.169800 
	C322.750427,256.169800 321.025299,256.169800 320.774658,256.169800 
	C318.894257,258.598816 317.383820,259.987762 316.642181,261.708191 
	C316.158722,262.829681 316.569489,264.505310 316.989929,265.799438 
	C317.394348,267.044220 318.758057,268.055603 318.933624,269.279541 
	C319.259583,271.551697 319.027435,273.903870 319.028625,277.134277 
M235.765457,266.507385 
	C235.765457,272.241913 235.765457,277.976471 235.765457,283.673950 
	C238.041245,283.673950 239.784592,283.673950 241.801163,283.673950 
	C241.801163,278.239410 241.801163,273.120483 241.801163,268.001526 
	C241.801163,262.774017 241.801163,257.546509 241.801163,252.312988 
	C239.411545,252.312988 237.692047,252.312988 235.765457,252.312988 
	C235.765457,256.915924 235.765457,261.215485 235.765457,266.507385 
M368.562469,274.633789 
	C369.753876,273.892883 371.940582,273.199280 371.978394,272.403534 
	C372.267090,266.330170 372.136688,260.236908 372.136688,253.992188 
	C370.194824,253.992188 368.337006,253.992188 365.932190,253.992188 
	C366.567719,261.121124 367.163544,267.804657 368.562469,274.633789 
M296.962799,256.756195 
	C299.262756,256.883484 301.562744,257.010773 303.862701,257.138062 
	C303.836304,256.861877 303.809875,256.585693 303.783447,256.309479 
	C306.065002,257.041840 308.346527,257.774200 311.899109,258.914551 
	C305.903076,250.921555 303.900482,249.478531 296.962799,256.756195 
M163.126511,256.009460 
	C163.807144,251.701767 161.694504,251.353638 158.331802,252.467163 
	C158.177338,254.295044 157.965240,255.920486 157.923431,257.550293 
	C157.882385,259.149567 158.014496,260.753296 158.070618,262.355072 
	C159.446747,261.263153 160.912964,260.262512 162.156281,259.035950 
	C162.679520,258.519775 162.732117,257.526520 163.126511,256.009460 
M367.659607,278.608276 
	C367.421997,280.158905 366.792877,281.808502 367.147034,283.209564 
	C367.281219,283.740509 369.838226,284.158936 370.996948,283.764648 
	C371.844818,283.476166 372.212524,281.776428 372.794220,280.705688 
	C371.274384,279.897675 369.754547,279.089661 367.659607,278.608276 
z"/>
<path fill="#149785" opacity="1.000000" stroke="none" 
	d="
M1.000002,454.468658 
	C20.497816,438.723907 39.574268,422.863159 59.652355,408.392151 
	C71.585800,399.791321 84.744507,392.657593 97.999840,386.191711 
	C110.317268,380.183319 118.711906,383.449432 124.779015,395.786255 
	C129.682678,405.757324 133.654129,416.235779 137.400375,426.717468 
	C146.923904,453.363464 164.034805,473.688751 189.078674,486.380310 
	C204.944366,494.420563 221.917145,492.647034 237.574356,484.559723 
	C241.901794,482.324493 245.765167,477.455322 247.821213,472.885681 
	C253.825104,459.541687 258.663483,445.678986 264.231750,432.131805 
	C270.199158,417.613525 277.212646,403.687531 287.518372,391.593262 
	C302.409424,374.117920 322.305542,371.026306 341.447998,383.709778 
	C359.375946,395.588562 372.151001,412.342773 382.817627,430.453674 
	C392.415588,446.750092 400.510010,463.962463 408.723297,481.032715 
	C413.780487,491.543365 423.557465,494.135101 431.976105,485.210205 
	C439.102478,477.655304 444.858002,468.761536 450.875854,460.217712 
	C459.681091,447.716492 461.820190,432.439392 467.672028,418.702393 
	C472.882324,406.471375 478.406647,394.372070 483.948853,382.286407 
	C484.970154,380.059296 486.751068,378.183319 488.159943,376.130554 
	C491.081726,371.873413 494.897491,369.807404 500.570190,371.094482 
	C501.000000,411.354218 501.000000,451.708466 500.662933,492.566254 
	C497.550598,495.713226 494.775299,498.356628 492.000000,501.000000 
	C328.333313,501.000000 164.666656,501.000000 1.000000,501.000000 
	C1.000000,485.579010 1.000000,470.258148 1.000002,454.468658 
z"/>
<path fill="#C1C1C1" opacity="1.000000" stroke="none" 
	d="
M501.000000,2.499999 
	C500.001495,2.976432 499.002960,2.932211 498.004456,2.932218 
	C332.645050,2.933237 167.285660,2.937428 1.463135,2.970747 
	C1.333333,2.333333 1.548027,1.216341 2.023962,1.090954 
	C3.114909,0.803541 4.333333,1.000000 5.500000,1.000000 
	C169.166672,1.000000 332.833344,0.997328 496.500000,1.041375 
	C498.000092,1.041779 499.500000,1.666665 501.000000,2.499999 
z"/>
<path fill="#1F1F1F" opacity="1.000000" stroke="none" 
	d="
M492.491058,501.000000 
	C494.775299,498.356628 497.550598,495.713226 500.662933,493.034912 
	C501.000000,495.588745 501.000000,498.177490 501.000000,501.000000 
	C498.329681,501.000000 495.655914,501.000000 492.491058,501.000000 
z"/>
<path fill="#E9E9E9" opacity="1.000000" stroke="none" 
	d="
M135.692108,271.699707 
	C137.211807,274.487915 138.181122,277.803925 140.309830,278.931854 
	C143.134277,280.428467 145.684738,278.528809 147.534821,275.478363 
	C148.329575,274.167999 151.246399,274.144684 153.590256,273.414795 
	C152.686829,280.338715 150.059891,283.209534 144.634842,284.134857 
	C138.530411,285.176117 133.196152,283.127777 130.987991,278.345581 
	C128.214615,272.339386 128.156403,266.033569 130.726074,259.950317 
	C132.826263,254.978470 138.439453,252.371140 143.971603,253.268143 
	C149.668793,254.191910 152.703293,257.419281 153.623077,263.733643 
	C151.809097,263.733643 150.027695,263.733643 148.018478,263.733643 
	C146.906097,260.122528 144.738953,257.538605 140.480423,258.500397 
	C136.093185,259.491272 135.910049,263.231018 135.674957,266.767212 
	C135.575943,268.256470 135.658035,269.757721 135.692108,271.699707 
z"/>
<path fill="#ECECEC" opacity="1.000000" stroke="none" 
	d="
M307.836731,274.509888 
	C305.247711,274.509827 303.124725,274.509827 300.899902,274.509827 
	C302.041626,279.528870 304.267517,280.471191 308.860077,278.888916 
	C310.287231,278.397217 312.087585,278.988861 314.898804,279.153900 
	C309.478699,284.771149 302.887085,285.651123 298.452545,282.497467 
	C293.958191,279.301300 292.544373,272.331421 295.255859,266.738525 
	C297.490662,262.128937 302.831940,259.908844 307.850128,261.503754 
	C312.825317,263.084991 314.995239,267.367554 314.029327,274.509918 
	C312.182068,274.509918 310.242432,274.509918 307.836731,274.509888 
M302.756714,266.133057 
	C302.019348,267.307404 301.281982,268.481720 300.339020,269.983459 
	C303.552826,269.983459 305.856049,269.983459 308.159271,269.983459 
	C308.350677,269.445526 308.542084,268.907593 308.733521,268.369659 
	C307.028107,267.553101 305.322693,266.736542 302.756714,266.133057 
z"/>
<path fill="#F0F0F0" opacity="1.000000" stroke="none" 
	d="
M350.489868,265.783203 
	C351.251801,268.632446 351.799103,271.163239 352.535461,274.568420 
	C347.288086,274.568420 342.802826,274.568420 337.792267,274.568420 
	C339.485260,279.629425 342.165375,280.327972 346.107330,278.987488 
	C347.569611,278.490234 349.342743,278.907135 352.182281,278.907135 
	C346.778473,285.139984 339.224792,285.720612 334.755646,281.562256 
	C330.382172,277.492920 330.363190,268.100159 334.720001,263.908630 
	C339.274384,259.527008 345.788879,260.178711 350.489868,265.783203 
M345.223053,267.189728 
	C340.632446,264.823273 339.244751,265.388550 338.188354,270.562897 
	C340.697571,269.099487 344.707581,273.701630 345.223053,267.189728 
z"/>
<path fill="#EDEDED" opacity="1.000000" stroke="none" 
	d="
M251.179291,270.849792 
	C253.842545,270.392914 256.116760,270.055695 258.389648,269.718658 
	C257.742126,265.452362 256.257019,264.661102 253.081818,266.404083 
	C251.237274,267.416626 249.129059,267.948853 246.683594,268.868713 
	C247.564835,263.182709 250.525620,260.958069 255.847168,261.011200 
	C261.190735,261.064545 264.641113,263.656158 264.871429,268.310425 
	C265.122650,273.387726 264.928497,278.487091 264.928497,283.627197 
	C261.172943,283.832550 257.040161,284.196991 252.903885,284.242340 
	C249.395706,284.280823 246.661987,282.672394 245.922623,279.057617 
	C245.103607,275.053345 246.909607,272.307892 251.179291,270.849792 
M257.917664,273.729156 
	C257.098846,273.689758 255.996704,273.294922 255.515152,273.678711 
	C254.154877,274.762848 252.960144,276.105011 251.974274,277.534546 
	C251.870316,277.685242 253.955994,279.948090 254.390350,279.760437 
	C255.994980,279.067047 257.442566,277.865936 258.701202,276.607635 
	C259.059448,276.249481 258.576721,275.050049 257.917664,273.729156 
z"/>
<path fill="#EBEBEB" opacity="1.000000" stroke="none" 
	d="
M201.470734,271.343353 
	C205.153076,272.833466 207.589996,275.461395 206.006714,278.739471 
	C204.871338,281.090210 201.788849,283.370026 199.181686,283.968872 
	C192.721222,285.452728 189.036026,282.947174 187.319931,275.992096 
	C189.886108,277.017059 191.740189,277.769287 193.603516,278.497864 
	C194.934982,279.018494 196.268219,279.844757 197.621109,279.887573 
	C198.474625,279.914520 199.365845,278.748810 200.240143,278.118073 
	C199.614746,277.266205 199.167923,276.020264 198.328812,275.640076 
	C196.231674,274.689850 193.643921,274.571472 191.843735,273.289734 
	C190.163589,272.093414 188.181305,269.776276 188.266495,268.047852 
	C188.366669,266.015564 190.103683,263.347137 191.915390,262.249481 
	C197.510147,258.859863 204.529007,261.752319 206.273926,268.532074 
	C203.985580,268.048767 202.055389,267.705475 200.161209,267.221283 
	C198.566132,266.813538 197.033813,266.100067 195.423492,265.863190 
	C195.102448,265.815948 194.554199,267.313019 194.110687,268.097961 
	C195.483200,268.869995 196.819229,269.720062 198.241608,270.385498 
	C199.130157,270.801208 200.148972,270.938538 201.470734,271.343353 
z"/>
<path fill="#F1F1F1" opacity="1.000000" stroke="none" 
	d="
M181.787964,278.087402 
	C184.676971,279.514404 184.611221,280.930542 182.324829,282.544373 
	C179.021515,284.875977 172.385681,284.915253 169.053101,282.534241 
	C165.321014,279.867767 163.617615,274.172424 165.004898,268.999054 
	C166.289474,264.208588 169.821136,261.295990 174.652313,261.042755 
	C181.610260,260.678070 185.439316,265.473907 184.645844,273.808960 
	C180.126907,274.040863 175.575516,274.274445 170.343536,274.542969 
	C173.485397,281.270294 177.458954,279.596405 181.787964,278.087402 
M179.000763,268.633972 
	C177.464981,267.703430 175.902557,266.016113 174.401428,266.069000 
	C173.073349,266.115814 171.813538,268.099945 170.523590,269.228760 
	C170.817596,269.773163 171.111618,270.317566 171.405624,270.862000 
	C173.960907,270.386475 176.516174,269.910919 179.000763,268.633972 
z"/>
<path fill="#F1F1F1" opacity="1.000000" stroke="none" 
	d="
M280.548340,261.308655 
	C282.251556,256.847656 282.675293,251.656906 288.999237,251.783096 
	C290.348907,251.810013 291.678467,252.847839 293.017273,253.419937 
	C292.094727,254.441422 291.151154,255.444901 290.255981,256.489807 
	C289.460266,257.418579 288.543915,258.312073 288.042023,259.389435 
	C287.852936,259.795349 288.557678,260.792786 289.067535,261.311584 
	C290.034912,262.296021 291.155670,263.129730 292.212738,264.026062 
	C290.924683,264.956573 289.636597,265.887115 287.823853,267.196686 
	C287.823853,272.157288 287.823853,277.769501 287.823853,283.758667 
	C285.770447,283.848938 284.029388,283.925476 281.727386,284.026672 
	C281.727386,278.957336 281.868927,274.189728 281.631287,269.441101 
	C281.569214,268.200012 280.529572,266.821442 279.584717,265.850769 
	C277.769897,263.986359 277.423981,262.583008 280.548340,261.308655 
z"/>
<path fill="#E5E5E5" opacity="1.000000" stroke="none" 
	d="
M211.385040,270.165466 
	C211.384613,269.535400 211.456085,269.306183 211.373703,269.212921 
	C207.497894,264.825439 209.707275,260.655334 212.438019,256.150482 
	C213.545364,256.150482 215.279739,256.150482 215.766739,256.150482 
	C217.776031,258.455841 219.463974,259.869263 220.406662,261.672302 
	C220.963409,262.737152 220.898392,265.091858 220.153717,265.708984 
	C216.500946,268.736176 216.619003,276.574554 220.508789,279.710388 
	C221.217926,280.282074 221.640457,281.656586 221.555984,282.603485 
	C221.502289,283.205505 220.343063,283.996857 219.551468,284.197296 
	C215.153931,285.310608 211.897232,283.074799 211.492462,278.581787 
	C211.255295,275.949249 211.407898,273.281616 211.385040,270.165466 
z"/>
<path fill="#F0F0F0" opacity="1.000000" stroke="none" 
	d="
M319.028137,276.678528 
	C319.027435,273.903870 319.259583,271.551697 318.933624,269.279541 
	C318.758057,268.055603 317.394348,267.044220 316.989929,265.799438 
	C316.569489,264.505310 316.158722,262.829681 316.642181,261.708191 
	C317.383820,259.987762 318.894257,258.598816 320.774658,256.169800 
	C321.025299,256.169800 322.750427,256.169800 323.183960,256.169800 
	C325.260834,258.529633 326.958740,259.973145 327.966278,261.797852 
	C328.513123,262.788208 328.411987,265.105408 327.698242,265.660278 
	C323.966949,268.561188 324.039124,276.741028 327.949799,279.744019 
	C328.662598,280.291412 329.142822,281.608063 329.083496,282.527863 
	C329.045013,283.124023 327.909546,283.951691 327.132111,284.148743 
	C322.202148,285.398224 319.515747,283.022125 319.028137,276.678528 
z"/>
<path fill="#EDEDED" opacity="1.000000" stroke="none" 
	d="
M235.765457,266.011200 
	C235.765457,261.215485 235.765457,256.915924 235.765457,252.312988 
	C237.692047,252.312988 239.411545,252.312988 241.801163,252.312988 
	C241.801163,257.546509 241.801163,262.774017 241.801163,268.001526 
	C241.801163,273.120483 241.801163,278.239410 241.801163,283.673950 
	C239.784592,283.673950 238.041245,283.673950 235.765457,283.673950 
	C235.765457,277.976471 235.765457,272.241913 235.765457,266.011200 
z"/>
<path fill="#EFEFEF" opacity="1.000000" stroke="none" 
	d="
M368.160950,274.560974 
	C367.163544,267.804657 366.567719,261.121124 365.932190,253.992188 
	C368.337006,253.992188 370.194824,253.992188 372.136688,253.992188 
	C372.136688,260.236908 372.267090,266.330170 371.978394,272.403534 
	C371.940582,273.199280 369.753876,273.892883 368.160950,274.560974 
z"/>
<path fill="#DADADA" opacity="1.000000" stroke="none" 
	d="
M297.135925,256.497101 
	C303.900482,249.478531 305.903076,250.921555 311.899109,258.914551 
	C308.346527,257.774200 306.065002,257.041840 303.783447,256.309479 
	C303.809875,256.585693 303.836304,256.861877 303.862701,257.138062 
	C301.562744,257.010773 299.262756,256.883484 297.135925,256.497101 
z"/>
<path fill="#DADADA" opacity="1.000000" stroke="none" 
	d="
M163.062592,256.379791 
	C162.732117,257.526520 162.679520,258.519775 162.156281,259.035950 
	C160.912964,260.262512 159.446747,261.263153 158.070618,262.355072 
	C158.014496,260.753296 157.882385,259.149567 157.923431,257.550293 
	C157.965240,255.920486 158.177338,254.295044 158.331802,252.467163 
	C161.694504,251.353638 163.807144,251.701767 163.062592,256.379791 
z"/>
<path fill="#E5E5E5" opacity="1.000000" stroke="none" 
	d="
M367.947144,278.444946 
	C369.754547,279.089661 371.274384,279.897675 372.794250,280.705688 
	C372.212524,281.776428 371.844818,283.476166 370.996948,283.764648 
	C369.838226,284.158936 367.281219,283.740509 367.147034,283.209564 
	C366.792877,281.808502 367.421997,280.158905 367.947144,278.444946 
z"/>
<path fill="#303030" opacity="1.000000" stroke="none" 
	d="
M303.187012,266.026520 
	C305.322693,266.736542 307.028107,267.553101 308.733521,268.369659 
	C308.542084,268.907593 308.350677,269.445526 308.159271,269.983459 
	C305.856049,269.983459 303.552826,269.983459 300.339020,269.983459 
	C301.281982,268.481720 302.019348,267.307404 303.187012,266.026520 
z"/>
<path fill="#454545" opacity="1.000000" stroke="none" 
	d="
M345.440857,267.522583 
	C344.707581,273.701630 340.697571,269.099487 338.188354,270.562897 
	C339.244751,265.388550 340.632446,264.823273 345.440857,267.522583 
z"/>
<path fill="#454545" opacity="1.000000" stroke="none" 
	d="
M258.198669,273.982788 
	C258.576721,275.050049 259.059448,276.249481 258.701202,276.607635 
	C257.442566,277.865936 255.994980,279.067047 254.390350,279.760437 
	C253.955994,279.948090 251.870316,277.685242 251.974274,277.534546 
	C252.960144,276.105011 254.154877,274.762848 255.515152,273.678711 
	C255.996704,273.294922 257.098846,273.689758 258.198669,273.982788 
z"/>
<path fill="#454545" opacity="1.000000" stroke="none" 
	d="
M179.036102,269.034668 
	C176.516174,269.910919 173.960907,270.386475 171.405624,270.862000 
	C171.111618,270.317566 170.817596,269.773163 170.523590,269.228760 
	C171.813538,268.099945 173.073349,266.115814 174.401428,266.069000 
	C175.902557,266.016113 177.464981,267.703430 179.036102,269.034668 
z"/>
</svg>