<svg version="1.1" id="Layer_1" xmlns="http://www.w3.org/2000/svg" xmlns:xlink="http://www.w3.org/1999/xlink" x="0px" y="0px"
	 width="100%" viewBox="0 0 500 500" enable-background="new 0 0 500 500" xml:space="preserve">
<path fill="#C36725" opacity="1.000000" stroke="none" 
	d="
M1.000002,352.000000 
	C1.000000,235.041519 1.000000,118.083046 1.000000,1.062283 
	C167.565979,1.062283 334.131989,1.062283 501.000000,1.062283 
	C501.000000,121.023155 501.000000,241.046570 500.632874,361.599487 
	C487.560394,367.508972 474.819336,372.807098 462.173950,378.324402 
	C458.865845,379.767731 455.452362,381.431335 452.769989,383.775055 
	C427.589081,405.777039 402.510651,427.897339 377.543243,450.141266 
	C374.649872,452.718964 372.368835,452.847443 369.122681,451.160034 
	C358.932800,445.863342 348.602722,440.837311 338.361664,435.638000 
	C317.591125,425.092987 296.962982,414.258209 276.037048,404.032135 
	C265.121307,398.697876 255.713135,391.838226 247.325027,383.019012 
	C232.866119,367.816925 217.763229,353.228333 202.994156,338.319305 
	C200.577789,335.880035 198.249146,334.620331 194.607025,335.718719 
	C160.826202,345.905945 127.010757,355.978790 93.175873,365.985107 
	C91.364639,366.520752 89.121101,366.694061 87.362434,366.138397 
	C69.275070,360.423370 51.290627,354.379120 33.165344,348.790375 
	C29.339275,347.610626 24.959257,347.169952 21.007004,347.692841 
	C14.266045,348.584656 7.661725,350.509277 1.000002,352.000000 
M174.576767,193.628937 
	C170.351379,192.942123 168.310959,194.836700 167.115997,198.909668 
	C165.106674,205.758408 162.545776,212.447372 160.138458,219.175476 
	C159.690231,220.428162 158.873108,221.548843 157.664993,223.755646 
	C156.586716,221.229172 155.952332,219.941528 155.477692,218.597458 
	C152.987732,211.546524 150.404602,204.524277 148.116760,197.407532 
	C146.275726,191.680679 141.669006,193.862686 138.054520,193.751465 
	C134.219910,193.633438 134.933334,196.913330 134.922745,199.286926 
	C134.872269,210.605057 134.943420,221.923813 134.873840,233.241745 
	C134.855392,236.243439 135.649475,237.755600 139.103455,237.805450 
	C142.765182,237.858322 144.195801,236.732300 144.095306,232.989426 
	C143.901810,225.782257 144.038895,218.566208 144.038895,211.353851 
	C145.396667,212.370041 146.057098,213.601959 146.536606,214.900696 
	C148.895386,221.289597 151.035873,227.767273 153.655563,234.045822 
	C154.297226,235.583694 156.482651,237.466690 157.900711,237.420532 
	C159.398285,237.371796 161.486481,235.491333 162.164856,233.915268 
	C164.393143,228.738327 166.058441,223.321472 168.022675,218.027435 
	C168.993759,215.410202 170.145813,212.860092 171.215988,210.279617 
	C171.830490,218.049561 171.906189,225.509232 171.795120,232.966110 
	C171.747284,236.177536 172.550797,237.784851 176.268295,237.816772 
	C180.142868,237.850021 181.105896,236.314331 181.061966,232.787476 
	C180.923111,221.637299 180.855530,210.481003 181.089569,199.334000 
	C181.180237,195.015503 179.812515,193.020798 174.576767,193.628937 
M286.233124,237.249222 
	C287.104767,238.230316 288.610565,239.141418 288.728027,240.205750 
	C289.067474,243.281769 288.848083,246.419449 288.848083,249.703949 
	C292.220093,249.703949 294.793701,249.703949 297.818939,249.703949 
	C297.818939,236.174225 297.837738,223.033890 297.808716,209.893661 
	C297.798584,205.309616 295.686310,204.017944 291.115906,205.297272 
	C289.489655,205.752487 287.465942,205.924744 285.930695,205.372528 
	C279.041962,202.894608 272.383209,205.433350 270.235382,212.491684 
	C268.966187,216.662659 268.611359,221.359543 268.970551,225.727402 
	C269.743958,235.133438 275.925110,239.326828 286.233124,237.249222 
M196.756653,216.512665 
	C196.756653,215.014160 196.757782,213.515656 196.756439,212.017151 
	C196.749695,204.504517 196.007339,203.960861 188.248306,205.856506 
	C188.114975,206.471115 187.857208,207.117523 187.852295,207.765823 
	C187.804260,214.091965 187.673141,220.421127 187.810226,226.744141 
	C188.012543,236.073792 194.791702,240.521149 203.586700,237.472549 
	C205.119934,236.941086 207.119934,237.173096 208.751236,237.616196 
	C213.775665,238.980957 215.922882,237.517914 215.945160,232.289246 
	C215.977081,224.796844 215.873062,217.302963 215.989075,209.812241 
	C216.038757,206.603363 215.265961,205.000000 211.536301,204.981308 
	C207.742722,204.962326 207.075577,206.665527 207.148117,209.828384 
	C207.270248,215.153320 207.214767,220.484131 207.140656,225.811172 
	C207.088837,229.535385 204.863525,231.216904 201.364136,231.211853 
	C197.996124,231.206985 196.743332,229.117538 196.771774,225.979889 
	C196.797440,223.149704 196.763992,220.318985 196.756653,216.512665 
M329.222198,205.130478 
	C327.588257,205.130478 325.954315,205.130478 323.682098,205.130478 
	C323.682098,210.922501 323.684479,216.220154 323.681488,221.517792 
	C323.677277,228.998474 322.148926,231.662369 317.646149,231.207153 
	C311.451019,230.580872 313.312012,225.560059 313.167328,221.912460 
	C312.951965,216.484436 313.111450,211.041550 313.111450,205.752167 
	C304.159149,204.337463 304.153809,204.337463 304.157410,212.413940 
	C304.159607,217.410355 303.953644,222.420044 304.244141,227.400253 
	C304.749268,236.060059 310.855408,240.034073 319.224335,237.692459 
	C321.166229,237.149124 323.454529,237.214813 325.453613,237.628220 
	C330.536102,238.679291 332.372162,237.476913 332.398865,232.432129 
	C332.438477,224.937393 332.543427,217.437912 332.301056,209.950790 
	C332.248718,208.334579 330.838501,206.762344 329.222198,205.130478 
M345.240662,236.291840 
	C350.662354,238.821732 356.147980,239.084305 361.535889,236.360336 
	C366.768677,233.714798 366.816162,232.029373 361.879700,228.389893 
	C358.258179,230.783798 354.316071,232.990845 350.088348,229.932312 
	C348.542786,228.814209 347.761841,226.639252 345.964966,223.946823 
	C352.778687,223.946823 357.913361,223.851532 363.042053,223.985703 
	C365.738861,224.056229 366.855194,223.220062 366.936829,220.329849 
	C367.166260,212.211502 363.093872,206.250641 355.938202,204.781387 
	C348.083435,203.168594 341.496552,206.906799 338.659515,214.587463 
	C335.652252,222.729034 337.636749,229.910110 345.240662,236.291840 
M248.253250,228.419250 
	C248.283768,223.148056 244.800903,220.787766 240.484070,219.270218 
	C238.139191,218.445892 235.541290,218.243973 233.321487,217.199997 
	C232.111572,216.630997 231.453049,214.889572 230.545837,213.676910 
	C231.896042,212.710892 233.318954,210.883636 234.578629,210.989990 
	C236.272797,211.133041 237.731628,213.247543 239.489304,213.648438 
	C242.034943,214.229050 244.757645,214.033325 247.404816,214.168777 
	C246.680054,212.133682 246.489853,209.587204 245.126999,208.162491 
	C241.509308,204.380615 236.632339,203.875839 231.689758,204.682190 
	C225.777222,205.646774 221.794144,209.516907 221.614731,214.144867 
	C221.443985,218.549469 224.431168,221.864029 230.297867,223.687149 
	C232.360352,224.328110 234.611420,224.553101 236.492294,225.520416 
	C237.745911,226.165146 238.496979,227.787048 239.472961,228.971634 
	C238.104416,229.952515 236.585999,231.892136 235.399765,231.706696 
	C233.201279,231.363037 231.285202,229.511307 229.087463,228.781891 
	C226.794312,228.020798 224.307693,227.842575 221.905670,227.409531 
	C222.171234,229.321793 221.808929,231.693741 222.813080,233.065247 
	C226.761169,238.457764 232.620010,238.754028 238.591354,237.864151 
	C243.635330,237.112457 247.196548,234.478180 248.253250,228.419250 
M262.900391,217.521072 
	C262.899231,214.702316 262.751770,211.873947 262.936523,209.067429 
	C263.136383,206.031235 261.947327,204.945251 258.920776,205.030182 
	C256.137115,205.108261 254.004913,205.286850 254.047424,208.903229 
	C254.144882,217.192505 254.158844,225.484955 254.035370,233.773575 
	C253.983032,237.287399 255.850403,237.704956 258.756622,237.801056 
	C262.103333,237.911743 263.084167,236.616135 262.952820,233.435242 
	C262.747711,228.469467 262.899689,223.488968 262.900391,217.521072 
M262.038940,199.766953 
	C262.039795,197.686066 262.858704,194.607849 261.838898,193.771332 
	C260.499298,192.672562 257.528870,192.810181 255.622757,193.467957 
	C254.655624,193.801697 253.646393,197.488220 254.102753,197.853958 
	C255.822220,199.231979 258.119080,199.911636 260.244629,200.737183 
	C260.566406,200.862152 261.126099,200.374603 262.038940,199.766953 
z"/>
<path fill="#944E1C" opacity="1.000000" stroke="none" 
	d="
M1.000002,352.468689 
	C7.661725,350.509277 14.266045,348.584656 21.007004,347.692841 
	C24.959257,347.169952 29.339275,347.610626 33.165344,348.790375 
	C51.290627,354.379120 69.275070,360.423370 87.362434,366.138397 
	C89.121101,366.694061 91.364639,366.520752 93.175873,365.985107 
	C127.010757,355.978790 160.826202,345.905945 194.607025,335.718719 
	C198.249146,334.620331 200.577789,335.880035 202.994156,338.319305 
	C217.763229,353.228333 232.866119,367.816925 247.325027,383.019012 
	C255.713135,391.838226 265.121307,398.697876 276.037048,404.032135 
	C296.962982,414.258209 317.591125,425.092987 338.361664,435.638000 
	C348.602722,440.837311 358.932800,445.863342 369.122681,451.160034 
	C372.368835,452.847443 374.649872,452.718964 377.543243,450.141266 
	C402.510651,427.897339 427.589081,405.777039 452.769989,383.775055 
	C455.452362,381.431335 458.865845,379.767731 462.173950,378.324402 
	C474.819336,372.807098 487.560394,367.508972 500.632874,362.064484 
	C501.000000,408.307587 501.000000,454.615173 501.000000,500.961365 
	C334.451691,500.961365 167.903351,500.961365 1.000000,500.961365 
	C1.000000,451.646332 1.000000,402.291840 1.000002,352.468689 
z"/>
<path fill="#FAF3ED" opacity="1.000000" stroke="none" 
	d="
M174.984528,193.629456 
	C179.812515,193.020798 181.180237,195.015503 181.089569,199.334000 
	C180.855530,210.481003 180.923111,221.637299 181.061966,232.787476 
	C181.105896,236.314331 180.142868,237.850021 176.268295,237.816772 
	C172.550797,237.784851 171.747284,236.177536 171.795120,232.966110 
	C171.906189,225.509232 171.830490,218.049561 171.215988,210.279617 
	C170.145813,212.860092 168.993759,215.410202 168.022675,218.027435 
	C166.058441,223.321472 164.393143,228.738327 162.164856,233.915268 
	C161.486481,235.491333 159.398285,237.371796 157.900711,237.420532 
	C156.482651,237.466690 154.297226,235.583694 153.655563,234.045822 
	C151.035873,227.767273 148.895386,221.289597 146.536606,214.900696 
	C146.057098,213.601959 145.396667,212.370041 144.038895,211.353851 
	C144.038895,218.566208 143.901810,225.782257 144.095306,232.989426 
	C144.195801,236.732300 142.765182,237.858322 139.103455,237.805450 
	C135.649475,237.755600 134.855392,236.243439 134.873840,233.241745 
	C134.943420,221.923813 134.872269,210.605057 134.922745,199.286926 
	C134.933334,196.913330 134.219910,193.633438 138.054520,193.751465 
	C141.669006,193.862686 146.275726,191.680679 148.116760,197.407532 
	C150.404602,204.524277 152.987732,211.546524 155.477692,218.597458 
	C155.952332,219.941528 156.586716,221.229172 157.664993,223.755646 
	C158.873108,221.548843 159.690231,220.428162 160.138458,219.175476 
	C162.545776,212.447372 165.106674,205.758408 167.115997,198.909668 
	C168.310959,194.836700 170.351379,192.942123 174.984528,193.629456 
z"/>
<path fill="#FAF3EE" opacity="1.000000" stroke="none" 
	d="
M285.772156,237.398148 
	C275.925110,239.326828 269.743958,235.133438 268.970551,225.727402 
	C268.611359,221.359543 268.966187,216.662659 270.235382,212.491684 
	C272.383209,205.433350 279.041962,202.894608 285.930695,205.372528 
	C287.465942,205.924744 289.489655,205.752487 291.115906,205.297272 
	C295.686310,204.017944 297.798584,205.309616 297.808716,209.893661 
	C297.837738,223.033890 297.818939,236.174225 297.818939,249.703949 
	C294.793701,249.703949 292.220093,249.703949 288.848083,249.703949 
	C288.848083,246.419449 289.067474,243.281769 288.728027,240.205750 
	C288.610565,239.141418 287.104767,238.230316 285.772156,237.398148 
M279.289978,229.279373 
	C281.679321,229.734695 284.347717,231.025055 286.360107,230.352493 
	C287.706757,229.902435 288.496887,226.728775 288.855225,224.656189 
	C289.273346,222.237671 288.891510,219.689285 288.963348,217.200317 
	C289.051453,214.147385 287.896820,211.375168 284.764008,211.679459 
	C282.447510,211.904465 278.722961,213.876862 278.435394,215.552826 
	C277.713104,219.762451 278.583954,224.245407 279.289978,229.279373 
z"/>
<path fill="#F9F1EB" opacity="1.000000" stroke="none" 
	d="
M196.756638,217.000580 
	C196.763992,220.318985 196.797440,223.149704 196.771774,225.979889 
	C196.743332,229.117538 197.996124,231.206985 201.364136,231.211853 
	C204.863525,231.216904 207.088837,229.535385 207.140656,225.811172 
	C207.214767,220.484131 207.270248,215.153320 207.148117,209.828384 
	C207.075577,206.665527 207.742722,204.962326 211.536301,204.981308 
	C215.265961,205.000000 216.038757,206.603363 215.989075,209.812241 
	C215.873062,217.302963 215.977081,224.796844 215.945160,232.289246 
	C215.922882,237.517914 213.775665,238.980957 208.751236,237.616196 
	C207.119934,237.173096 205.119934,236.941086 203.586700,237.472549 
	C194.791702,240.521149 188.012543,236.073792 187.810226,226.744141 
	C187.673141,220.421127 187.804260,214.091965 187.852295,207.765823 
	C187.857208,207.117523 188.114975,206.471115 188.248306,205.856506 
	C196.007339,203.960861 196.749695,204.504517 196.756439,212.017151 
	C196.757782,213.515656 196.756653,215.014160 196.756638,217.000580 
z"/>
<path fill="#FAF3EE" opacity="1.000000" stroke="none" 
	d="
M329.638000,205.150162 
	C330.838501,206.762344 332.248718,208.334579 332.301056,209.950790 
	C332.543427,217.437912 332.438477,224.937393 332.398865,232.432129 
	C332.372162,237.476913 330.536102,238.679291 325.453613,237.628220 
	C323.454529,237.214813 321.166229,237.149124 319.224335,237.692459 
	C310.855408,240.034073 304.749268,236.060059 304.244141,227.400253 
	C303.953644,222.420044 304.159607,217.410355 304.157410,212.413940 
	C304.153809,204.337463 304.159149,204.337463 313.111450,205.752167 
	C313.111450,211.041550 312.951965,216.484436 313.167328,221.912460 
	C313.312012,225.560059 311.451019,230.580872 317.646149,231.207153 
	C322.148926,231.662369 323.677277,228.998474 323.681488,221.517792 
	C323.684479,216.220154 323.682098,210.922501 323.682098,205.130478 
	C325.954315,205.130478 327.588257,205.130478 329.638000,205.150162 
z"/>
<path fill="#FAF2ED" opacity="1.000000" stroke="none" 
	d="
M344.907715,236.142014 
	C337.636749,229.910110 335.652252,222.729034 338.659515,214.587463 
	C341.496552,206.906799 348.083435,203.168594 355.938202,204.781387 
	C363.093872,206.250641 367.166260,212.211502 366.936829,220.329849 
	C366.855194,223.220062 365.738861,224.056229 363.042053,223.985703 
	C357.913361,223.851532 352.778687,223.946823 345.964966,223.946823 
	C347.761841,226.639252 348.542786,228.814209 350.088348,229.932312 
	C354.316071,232.990845 358.258179,230.783798 361.879700,228.389893 
	C366.816162,232.029373 366.768677,233.714798 361.535889,236.360336 
	C356.147980,239.084305 350.662354,238.821732 344.907715,236.142014 
M357.971649,215.060471 
	C356.800079,211.848175 354.226807,210.416641 351.294342,211.606140 
	C349.292053,212.418274 347.919098,214.781830 345.763641,216.957596 
	C353.176514,218.968689 355.967987,218.588593 357.971649,215.060471 
z"/>
<path fill="#F9F1EA" opacity="1.000000" stroke="none" 
	d="
M248.228455,228.785309 
	C247.196548,234.478180 243.635330,237.112457 238.591354,237.864151 
	C232.620010,238.754028 226.761169,238.457764 222.813080,233.065247 
	C221.808929,231.693741 222.171234,229.321793 221.905670,227.409531 
	C224.307693,227.842575 226.794312,228.020798 229.087463,228.781891 
	C231.285202,229.511307 233.201279,231.363037 235.399765,231.706696 
	C236.585999,231.892136 238.104416,229.952515 239.472961,228.971619 
	C238.496979,227.787048 237.745911,226.165146 236.492294,225.520416 
	C234.611420,224.553101 232.360352,224.328110 230.297867,223.687149 
	C224.431168,221.864029 221.443985,218.549469 221.614731,214.144867 
	C221.794144,209.516907 225.777222,205.646774 231.689758,204.682190 
	C236.632339,203.875839 241.509308,204.380615 245.126999,208.162491 
	C246.489853,209.587204 246.680054,212.133682 247.404816,214.168777 
	C244.757645,214.033325 242.034943,214.229050 239.489304,213.648438 
	C237.731628,213.247543 236.272797,211.133041 234.578629,210.989990 
	C233.318954,210.883636 231.896042,212.710892 230.545837,213.676910 
	C231.453049,214.889572 232.111572,216.630997 233.321487,217.199997 
	C235.541290,218.243973 238.139191,218.445892 240.484070,219.270218 
	C244.800903,220.787766 248.283768,223.148056 248.228455,228.785309 
z"/>
<path fill="#F9EEE7" opacity="1.000000" stroke="none" 
	d="
M262.900391,218.017883 
	C262.899689,223.488968 262.747711,228.469467 262.952820,233.435242 
	C263.084167,236.616135 262.103333,237.911743 258.756622,237.801056 
	C255.850403,237.704956 253.983032,237.287399 254.035370,233.773575 
	C254.158844,225.484955 254.144882,217.192505 254.047424,208.903229 
	C254.004913,205.286850 256.137115,205.108261 258.920776,205.030182 
	C261.947327,204.945251 263.136383,206.031235 262.936523,209.067429 
	C262.751770,211.873947 262.899231,214.702316 262.900391,218.017883 
z"/>
<path fill="#F7EBE2" opacity="1.000000" stroke="none" 
	d="
M261.807373,199.968674 
	C261.126099,200.374603 260.566406,200.862152 260.244629,200.737183 
	C258.119080,199.911636 255.822220,199.231979 254.102753,197.853958 
	C253.646393,197.488220 254.655624,193.801697 255.622757,193.467957 
	C257.528870,192.810181 260.499298,192.672562 261.838898,193.771332 
	C262.858704,194.607849 262.039795,197.686066 261.807373,199.968674 
z"/>
<path fill="#C87336" opacity="1.000000" stroke="none" 
	d="
M279.052979,228.949066 
	C278.583954,224.245407 277.713104,219.762451 278.435394,215.552826 
	C278.722961,213.876862 282.447510,211.904465 284.764008,211.679459 
	C287.896820,211.375168 289.051453,214.147385 288.963348,217.200317 
	C288.891510,219.689285 289.273346,222.237671 288.855225,224.656189 
	C288.496887,226.728775 287.706757,229.902435 286.360107,230.352493 
	C284.347717,231.025055 281.679321,229.734695 279.052979,228.949066 
z"/>
<path fill="#CC7D44" opacity="1.000000" stroke="none" 
	d="
M358.066071,215.468414 
	C355.967987,218.588593 353.176514,218.968689 345.763641,216.957596 
	C347.919098,214.781830 349.292053,212.418274 351.294342,211.606140 
	C354.226807,210.416641 356.800079,211.848175 358.066071,215.468414 
z"/>
</svg>